<?xml version="1.0" encoding="UTF-8"?>
<!DOCTYPE svg PUBLIC "-//W3C//DTD SVG 1.1//EN" "http://www.w3.org/Graphics/SVG/1.1/DTD/svg11.dtd">
<svg xmlns="http://www.w3.org/2000/svg" version="1.1" width="2000px" height="2000px" style="shape-rendering:geometricPrecision; text-rendering:geometricPrecision; image-rendering:optimizeQuality; fill-rule:evenodd; clip-rule:evenodd" xmlns:xlink="http://www.w3.org/1999/xlink">
<g><path style="opacity:0.986" fill="#62c4d2" d="M 1097.5,735.5 C 1087.39,743.072 1077.39,750.906 1067.5,759C 1057.6,761.736 1048.27,760.402 1039.5,755C 1029.16,748.666 1019.99,740.832 1012,731.5C 1000.42,714.003 989.084,696.336 978,678.5C 936.529,626.497 884.362,589.331 821.5,567C 811.892,565.065 802.225,563.565 792.5,562.5C 783.682,561.507 774.682,561.173 765.5,561.5C 865.237,552.468 952.237,581.302 1026.5,648C 1054.62,673.846 1078.29,703.013 1097.5,735.5 Z"/></g>
<g><path style="opacity:1" fill="#afe9ee" d="M 765.5,561.5 C 774.682,561.173 783.682,561.507 792.5,562.5C 777.484,562.334 762.484,562.667 747.5,563.5C 753.274,562.054 759.274,561.388 765.5,561.5 Z"/></g>
<g><path style="opacity:0.997" fill="#d8fefd" d="M 792.5,562.5 C 802.225,563.565 811.892,565.065 821.5,567C 884.362,589.331 936.529,626.497 978,678.5C 989.084,696.336 1000.42,714.003 1012,731.5C 1019.99,740.832 1029.16,748.666 1039.5,755C 1048.27,760.402 1057.6,761.736 1067.5,759C 1077.39,750.906 1087.39,743.072 1097.5,735.5C 1131.74,716.35 1166.41,715.85 1201.5,734C 1227.5,750.964 1237.33,774.797 1231,805.5C 1219.37,843.134 1195.2,869.301 1158.5,884C 1109.98,901.315 1063.98,896.148 1020.5,868.5C 1019.59,866.086 1017.93,865.253 1015.5,866C 1001.36,882.037 985.36,895.703 967.5,907C 962.033,909.735 956.367,911.902 950.5,913.5C 947.99,913.927 945.657,914.593 943.5,915.5C 898.437,920.823 868.77,902.156 854.5,859.5C 854.807,852.325 852.474,850.992 847.5,855.5C 836.986,861.257 826.319,866.757 815.5,872C 785.897,881.793 756.897,880.293 728.5,867.5C 726.537,866.18 724.537,864.846 722.5,863.5C 704.711,852.236 698.211,836.236 703,815.5C 707.241,801.267 712.741,787.601 719.5,774.5C 730.234,740.533 730.067,706.533 719,672.5C 701.299,629.396 669.132,608.563 622.5,610C 603.711,615.229 585.711,622.396 568.5,631.5C 576.672,626.58 585.005,621.913 593.5,617.5C 602.634,613.844 611.968,610.677 621.5,608C 657.647,604.828 687.481,616.994 711,644.5C 722.533,660.413 730.2,678.08 734,697.5C 735.01,718.567 739.343,738.9 747,758.5C 765.688,797.428 795.854,811.261 837.5,800C 858.518,790.647 873.018,775.147 881,753.5C 887.29,738.405 887.956,723.072 883,707.5C 870.441,665.642 846.941,631.475 812.5,605C 796.266,595.216 779.266,587.05 761.5,580.5C 761.5,580.167 761.5,579.833 761.5,579.5C 806.707,590.828 841.54,616.161 866,655.5C 871.175,663.848 875.842,672.515 880,681.5C 889.789,706.865 898.789,732.532 907,758.5C 910.571,769.482 916.071,779.315 923.5,788C 926.608,790.106 929.941,791.772 933.5,793C 948.775,796.267 963.442,794.6 977.5,788C 987.331,779.848 993.164,769.348 995,756.5C 995.667,746.833 995.667,737.167 995,727.5C 989.558,709.615 981.225,693.282 970,678.5C 929.349,626.872 877.849,590.372 815.5,569C 786.524,563.167 757.524,563.001 728.5,568.5C 727.391,568.557 726.391,568.89 725.5,569.5C 709.608,572.204 693.941,575.871 678.5,580.5C 677.833,580.5 677.5,580.167 677.5,579.5C 700.083,571.356 723.417,566.023 747.5,563.5C 762.484,562.667 777.484,562.334 792.5,562.5 Z"/></g>
<g><path style="opacity:1" fill="#62c4d2" d="M 761.5,579.5 C 753.926,576.066 745.926,573.733 737.5,572.5C 734.433,571.317 731.433,569.983 728.5,568.5C 757.524,563.001 786.524,563.167 815.5,569C 877.849,590.372 929.349,626.872 970,678.5C 981.225,693.282 989.558,709.615 995,727.5C 995.667,737.167 995.667,746.833 995,756.5C 993.164,769.348 987.331,779.848 977.5,788C 963.442,794.6 948.775,796.267 933.5,793C 929.941,791.772 926.608,790.106 923.5,788C 916.071,779.315 910.571,769.482 907,758.5C 898.789,732.532 889.789,706.865 880,681.5C 875.842,672.515 871.175,663.848 866,655.5C 841.54,616.161 806.707,590.828 761.5,579.5 Z"/></g>
<g><path style="opacity:1" fill="#62c4d2" d="M 725.5,569.5 C 729.239,571.102 733.239,572.102 737.5,572.5C 745.341,575.336 753.341,578.003 761.5,580.5C 779.266,587.05 796.266,595.216 812.5,605C 846.941,631.475 870.441,665.642 883,707.5C 887.956,723.072 887.29,738.405 881,753.5C 873.018,775.147 858.518,790.647 837.5,800C 795.854,811.261 765.688,797.428 747,758.5C 739.343,738.9 735.01,718.567 734,697.5C 730.2,678.08 722.533,660.413 711,644.5C 687.481,616.994 657.647,604.828 621.5,608C 611.968,610.677 602.634,613.844 593.5,617.5C 595.942,615.774 598.609,614.274 601.5,613C 602.696,612.346 602.696,611.846 601.5,611.5C 587.951,618.101 574.951,625.434 562.5,633.5C 561.5,633.5 560.5,633.5 559.5,633.5C 583.582,617.625 609.248,604.625 636.5,594.5C 635.4,595.558 634.066,596.392 632.5,597C 647.939,591.78 663.272,586.28 678.5,580.5C 693.941,575.871 709.608,572.204 725.5,569.5 Z"/></g>
<g><path style="opacity:1" fill="#8fdae2" d="M 728.5,568.5 C 731.433,569.983 734.433,571.317 737.5,572.5C 733.239,572.102 729.239,571.102 725.5,569.5C 726.391,568.89 727.391,568.557 728.5,568.5 Z"/></g>
<g><path style="opacity:1" fill="#baeff2" d="M 737.5,572.5 C 745.926,573.733 753.926,576.066 761.5,579.5C 761.5,579.833 761.5,580.167 761.5,580.5C 753.341,578.003 745.341,575.336 737.5,572.5 Z"/></g>
<g><path style="opacity:1" fill="#a5e4ea" d="M 677.5,579.5 C 677.5,580.167 677.833,580.5 678.5,580.5C 663.272,586.28 647.939,591.78 632.5,597C 634.066,596.392 635.4,595.558 636.5,594.5C 649.72,588.535 663.387,583.535 677.5,579.5 Z"/></g>
<g><path style="opacity:1" fill="#a8e6eb" d="M 618.5,602.5 C 619.552,602.351 620.552,602.517 621.5,603C 617.007,605.079 612.674,607.412 608.5,610C 607.167,610.667 605.833,610.667 604.5,610C 609.387,607.726 614.054,605.226 618.5,602.5 Z"/></g>
<g><path style="opacity:0.998" fill="#62c4d2" d="M 719.5,774.5 C 718.486,773.235 716.986,772.569 715,772.5C 704.037,774.232 693.871,778.065 684.5,784C 669.126,793.704 655.959,805.871 645,820.5C 615.379,861.494 592.879,906.161 577.5,954.5C 572.605,968.073 568.939,982.073 566.5,996.5C 553.905,1065.12 569.072,1126.79 612,1181.5C 678.597,1261.71 764.43,1303.38 869.5,1306.5C 904.743,1304.87 939.077,1298.37 972.5,1287C 1022.26,1270.45 1071.6,1252.78 1120.5,1234C 1151.41,1222.69 1183.07,1214.36 1215.5,1209C 1246.55,1206.65 1277.21,1208.98 1307.5,1216C 1374.01,1233.1 1436.35,1259.76 1494.5,1296C 1524.01,1314.25 1553.01,1333.25 1581.5,1353C 1613.38,1376.1 1645.38,1398.93 1677.5,1421.5C 1682.67,1424.48 1688.01,1427.31 1693.5,1430C 1341.18,1434.25 988.849,1437.08 636.5,1438.5C 604.833,1438.33 573.167,1438.17 541.5,1438C 463.354,1396.19 401.854,1337.02 357,1260.5C 313.581,1179.06 297.247,1092.4 308,1000.5C 319.4,903.514 357.734,819.18 423,747.5C 451.322,715.994 482.489,687.994 516.5,663.5C 531.084,654.719 545.417,645.719 559.5,636.5C 562.992,635.59 565.992,633.924 568.5,631.5C 585.711,622.396 603.711,615.229 622.5,610C 669.132,608.563 701.299,629.396 719,672.5C 730.067,706.533 730.234,740.533 719.5,774.5 Z"/></g>
<g><path style="opacity:1" fill="#9bdfe6" d="M 593.5,617.5 C 585.005,621.913 576.672,626.58 568.5,631.5C 565.992,633.924 562.992,635.59 559.5,636.5C 560.306,635.272 561.306,634.272 562.5,633.5C 574.951,625.434 587.951,618.101 601.5,611.5C 602.696,611.846 602.696,612.346 601.5,613C 598.609,614.274 595.942,615.774 593.5,617.5 Z"/></g>
<g><path style="opacity:0.545" fill="#80d2dc" d="M 559.5,633.5 C 560.5,633.5 561.5,633.5 562.5,633.5C 561.306,634.272 560.306,635.272 559.5,636.5C 545.417,645.719 531.084,654.719 516.5,663.5C 529.922,652.281 544.256,642.281 559.5,633.5 Z"/></g>
<g><path style="opacity:0.999" fill="#42a1bb" d="M 719.5,774.5 C 712.741,787.601 707.241,801.267 703,815.5C 698.211,836.236 704.711,852.236 722.5,863.5C 678.769,912.336 660.602,969.669 668,1035.5C 671.306,1080.75 684.639,1122.75 708,1161.5C 710.422,1165.34 713.089,1169.01 716,1172.5C 677.243,1111.4 663.243,1044.73 674,972.5C 681.131,931.564 699.298,896.564 728.5,867.5C 756.897,880.293 785.897,881.793 815.5,872C 826.319,866.757 836.986,861.257 847.5,855.5C 848.525,855.897 848.692,856.563 848,857.5C 838.979,868.212 831.479,879.879 825.5,892.5C 817.397,890.1 814.23,893.1 816,901.5C 816.816,902.823 817.983,903.489 819.5,903.5C 819.804,904.15 820.137,904.817 820.5,905.5C 794.957,973.271 798.123,1039.6 830,1104.5C 840.382,1122.59 852.715,1139.26 867,1154.5C 810.97,1089.13 794.303,1014.47 817,930.5C 820.208,920.375 823.708,910.375 827.5,900.5C 827.5,900.167 827.5,899.833 827.5,899.5C 832.805,889.565 838.638,879.898 845,870.5C 848.032,866.641 851.198,862.974 854.5,859.5C 868.77,902.156 898.437,920.823 943.5,915.5C 915.964,953.336 907.131,995.336 917,1041.5C 923.376,1072.27 937.543,1098.6 959.5,1120.5C 920.812,1075.41 908.312,1023.74 922,965.5C 927.644,945.864 937.144,928.531 950.5,913.5C 956.367,911.902 962.033,909.735 967.5,907C 985.36,895.703 1001.36,882.037 1015.5,866C 1017.93,865.253 1019.59,866.086 1020.5,868.5C 1001.74,889.309 987.408,912.976 977.5,939.5C 967.373,932.713 959.54,934.713 954,945.5C 953.589,956.922 959.089,962.589 970.5,962.5C 963.92,998.6 969.753,1032.6 988,1064.5C 1009.45,1098.95 1037.29,1127.12 1071.5,1149C 1110.54,1173.52 1152.21,1192.02 1196.5,1204.5C 1178.68,1208.21 1161.01,1212.71 1143.5,1218C 1080.12,1241.13 1016.46,1263.46 952.5,1285C 919.536,1294.76 885.87,1299.09 851.5,1298C 750.007,1290.35 668.507,1246.52 607,1166.5C 570.6,1115.35 557.433,1058.68 567.5,996.5C 570.805,982.608 574.138,968.608 577.5,954.5C 592.879,906.161 615.379,861.494 645,820.5C 655.959,805.871 669.126,793.704 684.5,784C 693.871,778.065 704.037,774.232 715,772.5C 716.986,772.569 718.486,773.235 719.5,774.5 Z"/></g>
<g><path style="opacity:1" fill="#7bd5f1" d="M 854.5,859.5 C 851.198,862.974 848.032,866.641 845,870.5C 838.638,879.898 832.805,889.565 827.5,899.5C 827.834,896.812 827.168,894.479 825.5,892.5C 831.479,879.879 838.979,868.212 848,857.5C 848.692,856.563 848.525,855.897 847.5,855.5C 852.474,850.992 854.807,852.325 854.5,859.5 Z"/></g>
<g><path style="opacity:1" fill="#78d4ef" d="M 722.5,863.5 C 724.537,864.846 726.537,866.18 728.5,867.5C 699.298,896.564 681.131,931.564 674,972.5C 663.243,1044.73 677.243,1111.4 716,1172.5C 713.089,1169.01 710.422,1165.34 708,1161.5C 684.639,1122.75 671.306,1080.75 668,1035.5C 660.602,969.669 678.769,912.336 722.5,863.5 Z"/></g>
<g><path style="opacity:0.825" fill="#d8fffd" d="M 1009.5,890.5 C 1016.17,890.005 1019.34,893.005 1019,899.5C 1017.29,904.038 1014.12,905.538 1009.5,904C 1005.88,901.839 1004.71,898.672 1006,894.5C 1006.69,892.65 1007.86,891.316 1009.5,890.5 Z"/></g>
<g><path style="opacity:1" fill="#d6fdfc" d="M 825.5,892.5 C 827.168,894.479 827.834,896.812 827.5,899.5C 827.5,899.833 827.5,900.167 827.5,900.5C 825.455,902.984 822.788,903.984 819.5,903.5C 817.983,903.489 816.816,902.823 816,901.5C 814.23,893.1 817.397,890.1 825.5,892.5 Z"/></g>
<g><path style="opacity:1" fill="#77d3ee" d="M 827.5,900.5 C 823.708,910.375 820.208,920.375 817,930.5C 794.303,1014.47 810.97,1089.13 867,1154.5C 852.715,1139.26 840.382,1122.59 830,1104.5C 798.123,1039.6 794.957,973.271 820.5,905.5C 820.137,904.817 819.804,904.15 819.5,903.5C 822.788,903.984 825.455,902.984 827.5,900.5 Z"/></g>
<g><path style="opacity:1" fill="#77d2ee" d="M 950.5,913.5 C 937.144,928.531 927.644,945.864 922,965.5C 908.312,1023.74 920.812,1075.41 959.5,1120.5C 937.543,1098.6 923.376,1072.27 917,1041.5C 907.131,995.336 915.964,953.336 943.5,915.5C 945.657,914.593 947.99,913.927 950.5,913.5 Z"/></g>
<g><path style="opacity:1" fill="#d5fcfc" d="M 838.5,915.5 C 850.192,916.228 853.692,921.894 849,932.5C 837.479,937.988 832.146,934.322 833,921.5C 834.36,918.977 836.193,916.977 838.5,915.5 Z"/></g>
<g><path style="opacity:0.885" fill="#d8fffd" d="M 1068.5,924.5 C 1076.6,923.874 1081.26,927.541 1082.5,935.5C 1079.94,945.523 1073.94,948.356 1064.5,944C 1058.38,935.881 1059.71,929.381 1068.5,924.5 Z"/></g>
<g><path style="opacity:0.97" fill="#d7fdfd" d="M 977.5,939.5 C 982.797,946.507 982.464,953.34 976.5,960C 974.593,961.122 972.593,961.955 970.5,962.5C 959.089,962.589 953.589,956.922 954,945.5C 959.54,934.713 967.373,932.713 977.5,939.5 Z"/></g>
<g><path style="opacity:1" fill="#b7ecf0" d="M 577.5,954.5 C 574.138,968.608 570.805,982.608 567.5,996.5C 567.167,996.5 566.833,996.5 566.5,996.5C 568.939,982.073 572.605,968.073 577.5,954.5 Z"/></g>
<g><path style="opacity:0.959" fill="#d4fcfc" d="M 566.5,996.5 C 566.833,996.5 567.167,996.5 567.5,996.5C 557.433,1058.68 570.6,1115.35 607,1166.5C 668.507,1246.52 750.007,1290.35 851.5,1298C 885.87,1299.09 919.536,1294.76 952.5,1285C 1016.46,1263.46 1080.12,1241.13 1143.5,1218C 1161.01,1212.71 1178.68,1208.21 1196.5,1204.5C 1230.19,1198.88 1263.85,1199.38 1297.5,1206C 1350.48,1217.99 1400.81,1236.99 1448.5,1263C 1496.38,1289.91 1542.38,1319.57 1586.5,1352C 1617.02,1375.03 1647.35,1398.2 1677.5,1421.5C 1645.38,1398.93 1613.38,1376.1 1581.5,1353C 1553.01,1333.25 1524.01,1314.25 1494.5,1296C 1436.35,1259.76 1374.01,1233.1 1307.5,1216C 1277.21,1208.98 1246.55,1206.65 1215.5,1209C 1183.07,1214.36 1151.41,1222.69 1120.5,1234C 1071.6,1252.78 1022.26,1270.45 972.5,1287C 939.077,1298.37 904.743,1304.87 869.5,1306.5C 764.43,1303.38 678.597,1261.71 612,1181.5C 569.072,1126.79 553.905,1065.12 566.5,996.5 Z"/></g>
<g><path style="opacity:1" fill="#65c2dd" d="M 959.5,1120.5 C 964.573,1124.07 969.24,1128.23 973.5,1133C 972.833,1133.67 972.167,1133.67 971.5,1133C 969.129,1130.29 966.463,1127.96 963.5,1126C 961.536,1124.55 960.203,1122.72 959.5,1120.5 Z"/></g>
<g><path style="opacity:1" fill="#62bfd9" d="M 875.5,1163.5 C 875.897,1162.47 876.563,1162.31 877.5,1163C 879.833,1165.33 882.167,1167.67 884.5,1170C 883.833,1170.67 883.167,1170.67 882.5,1170C 880.297,1167.63 877.963,1165.46 875.5,1163.5 Z"/></g>
<g><path style="opacity:1" fill="#cffafa" d="M 927.5,1338.5 C 926.209,1338.74 925.209,1338.4 924.5,1337.5C 965.487,1331.75 1005.49,1321.92 1044.5,1308C 1071.6,1295.62 1099.27,1284.62 1127.5,1275C 1203.21,1252.04 1278.54,1253.37 1353.5,1279C 1382.48,1288.66 1410.48,1300.66 1437.5,1315C 1438.7,1315.65 1438.7,1316.15 1437.5,1316.5C 1383.56,1287.8 1326.23,1270.3 1265.5,1264C 1225.21,1260.38 1185.55,1263.71 1146.5,1274C 1115.46,1282.19 1085.46,1293.19 1056.5,1307C 1014.84,1322.94 971.842,1333.44 927.5,1338.5 Z"/></g>
<g><path style="opacity:1" fill="#b3ecf0" d="M 924.5,1337.5 C 925.209,1338.4 926.209,1338.74 927.5,1338.5C 919.727,1340.23 911.727,1341.23 903.5,1341.5C 903.5,1341.17 903.5,1340.83 903.5,1340.5C 910.514,1339.59 917.514,1338.59 924.5,1337.5 Z"/></g>
<g><path style="opacity:1" fill="#94dce4" d="M 903.5,1340.5 C 903.5,1340.83 903.5,1341.17 903.5,1341.5C 895.399,1343.45 887.065,1344.29 878.5,1344C 886.866,1342.97 895.199,1341.8 903.5,1340.5 Z"/></g>
</svg>
